# xmcd
#
# Track frame offsets:
#	150
#	21349
#	40266
#	58295
#	75229
#
# Disc length: 1361 seconds
#
# Revision: 2
# Processed by: cddbd v1.5.2PL0 Copyright (c) Steve Scherf et al.
# Submitted via: EZCDDA 4.3.2
#
DISCID=37054f05
DTITLE=Timor Et Tremor - The Winding Path
DYEAR=1900
DGENRE=
TTITLE0=Bloodeagle
TTITLE1=Of Fire And Ice
TTITLE2=Black Havoc
TTITLE3=Allthing
TTITLE4=Northern Lights
EXTD=
EXTT0=
EXTT1=
EXTT2=
EXTT3=
EXTT4=
PLAYORDER=
